<svg width="14" height="16" viewBox="0 0 14 16" fill="none" xmlns="http://www.w3.org/2000/svg">
<path d="M11.7441 1.96473C10.4772 0.697753 8.79263 0 7.00093 0C5.20921 0 3.5247 0.697721 2.25766 1.96473C0.990722 3.23167 0.292969 4.91611 0.292969 6.70784C0.292969 8.49956 0.990722 10.1841 2.25766 11.451L6.66949 15.8627C6.76103 15.9543 6.881 16 7.00093 16C7.1209 16 7.24087 15.9542 7.33237 15.8627L11.744 11.4511C13.011 10.1841 13.7087 8.4996 13.7088 6.70787C13.7087 4.91608 13.0111 3.23164 11.7441 1.96473ZM9.10757 8.81441C8.54488 9.3771 7.79675 9.68701 7.00097 9.68701C6.20518 9.68701 5.45705 9.37713 4.89439 8.81444C4.33167 8.25175 4.0218 7.50362 4.0218 6.70784C4.0218 5.91209 4.33167 5.16396 4.89439 4.60124C5.45705 4.03855 6.20518 3.72867 7.00097 3.72867C7.79675 3.72867 8.54488 4.03855 9.10757 4.60124C9.67026 5.1639 9.98016 5.91202 9.98016 6.70781C9.98013 7.50359 9.67023 8.25175 9.10757 8.81441Z" fill="white"/>
</svg>
