<svg width="13" height="15" viewBox="0 0 13 15" fill="none" xmlns="http://www.w3.org/2000/svg">
<path d="M10.9464 1.84193C9.75865 0.654143 8.17937 0 6.49965 0C4.81991 0 3.24069 0.654114 2.05284 1.84193C0.865081 3.02969 0.210938 4.60886 0.210938 6.2886C0.210938 7.96834 0.865081 9.54757 2.05284 10.7354L6.18893 14.8713C6.27474 14.9571 6.38721 15 6.49965 15C6.61213 15 6.7246 14.9571 6.81038 14.8713L10.9463 10.7354C12.1341 9.5476 12.7882 7.96837 12.7883 6.28863C12.7882 4.60883 12.1341 3.02966 10.9464 1.84193ZM8.47462 8.26351C7.9471 8.79103 7.24573 9.08157 6.49968 9.08157C5.75364 9.08157 5.05227 8.79106 4.52477 8.26354C3.99722 7.73602 3.70671 7.03465 3.70671 6.2886C3.70671 5.54258 3.99722 4.84121 4.52477 4.31366C5.05227 3.78614 5.75364 3.49563 6.49968 3.49563C7.24573 3.49563 7.9471 3.78614 8.47462 4.31366C9.00214 4.84115 9.29268 5.54252 9.29268 6.28857C9.29265 7.03462 9.00211 7.73602 8.47462 8.26351Z" fill="white"/>
</svg>
